<svg width="89" height="80" viewBox="0 0 89 80" fill="none" xmlns="http://www.w3.org/2000/svg">
<path d="M80.1 0H22.25C17.3417 0 13.35 3.98667 13.35 8.88889V17.7778H8.9C3.99165 17.7778 0 21.7644 0 26.6667V71.1111C0 76.0133 3.99165 80 8.9 80H35.6C40.5083 80 44.5 76.0133 44.5 71.1111H80.1C85.0083 71.1111 89 67.1245 89 62.2222V8.88889C89 3.98667 85.0083 0 80.1 0ZM35.5866 71.1111H8.9V26.6667H35.6L35.5866 71.1111ZM80.0866 62.2222H44.5V26.6667C44.5 21.7644 40.5083 17.7778 35.6 17.7778H22.25V8.88889H80.1L80.0866 62.2222Z" fill="#0F2935"/>
<path d="M57.6667 31.05H61C61 26.2271 56.4083 24.0273 52.6667 23.5207V20H49.3333V23.5207C45.5917 24.0273 41 26.2271 41 31.05C41 35.6502 45.4433 38.0421 49.3333 38.581V47.03C46.92 46.6033 44.3333 45.2892 44.3333 42.95H41C41 47.3513 45.0417 49.9523 49.3333 50.4912V54H52.6667V50.481C56.4083 49.9744 61 47.7729 61 42.95C61 38.1271 56.4083 35.9273 52.6667 35.4207V26.97C54.8833 27.3763 57.6667 28.5697 57.6667 31.05ZM44.3333 31.05C44.3333 28.5697 47.1167 27.3763 49.3333 26.97V35.1283C47.0483 34.6982 44.3333 33.4249 44.3333 31.05ZM57.6667 42.95C57.6667 45.4303 54.8833 46.6237 52.6667 47.03V38.87C54.8833 39.2763 57.6667 40.4697 57.6667 42.95Z" fill="#0F2935"/>
<path d="M25.0552 45H24.972V45.5L25.4653 45.5821L25.4789 45.5H32.2517L25.0552 45ZM25.0552 45L26.3798 37.0388L25.0552 45ZM32.2517 46H32.2522C32.476 45.9998 32.6958 46.06 32.8885 46.1744C33.0812 46.2887 33.2396 46.4531 33.3472 46.6503C33.4547 46.8474 33.5072 47.0701 33.4992 47.2947C33.4912 47.5194 33.4229 47.7377 33.3016 47.9266L33.3015 47.9267L20.2323 68.2949V56V55.5H19.7323H12.7462C12.7462 55.5 12.7461 55.5 12.7461 55.5C12.5652 55.4999 12.3865 55.4604 12.2223 55.3841L12.0116 55.8375L12.2223 55.3841C12.0581 55.3078 11.9124 55.1965 11.7954 55.0579C11.6783 54.9193 11.5927 54.7568 11.5447 54.5816C11.4966 54.4064 11.4872 54.2228 11.5171 54.0436L11.5172 54.0433L14.4286 36.5436C14.4774 36.2517 14.6278 35.9868 14.8529 35.7958C15.0779 35.6048 15.363 35.5001 15.6576 35.5C15.6576 35.5 15.6577 35.5 15.6577 35.5L24.6559 35.5L24.6563 35.5C24.8373 35.4999 25.0162 35.5393 25.1805 35.6155C25.3449 35.6918 25.4908 35.803 25.6079 35.9416C25.7251 36.0802 25.8108 36.2428 25.859 36.4181C25.9071 36.5934 25.9165 36.7771 25.8866 36.9564L25.8865 36.9567L24.4788 45.4179L24.382 46H24.972H32.2517Z" fill="#0F2935" stroke="#A1C19C"/>
</svg>
