<svg width="28" height="29" viewBox="0 0 28 29" fill="none" xmlns="http://www.w3.org/2000/svg">
<path fill-rule="evenodd" clip-rule="evenodd" d="M14 0.688721C6.2673 0.688721 0 7.11466 0 15.0431C0 21.3841 4.01023 26.7652 9.57429 28.6649C10.2747 28.7945 10.5274 28.3526 10.5274 27.9727C10.5274 27.6316 10.5161 26.7278 10.5119 25.5318C6.6168 26.3982 5.79426 23.6062 5.79426 23.6062C5.15982 21.9483 4.24042 21.5065 4.24042 21.5065C2.97012 20.6156 4.33728 20.6358 4.33728 20.6358C5.74373 20.7365 6.48065 22.1152 6.48065 22.1152C7.7299 24.3085 9.75957 23.6753 10.554 23.3083C10.6818 22.38 11.0467 21.7468 11.4454 21.3884C8.33768 21.0272 5.06998 19.7953 5.06998 14.2933C5.06998 12.7289 5.616 11.4452 6.50732 10.4435C6.36555 10.0794 5.88129 8.6186 6.64628 6.64405C6.64628 6.64405 7.82114 6.25691 10.4951 8.11345C11.6371 7.79492 12.8151 7.63232 13.9986 7.62988C15.1821 7.63185 16.3602 7.79445 17.5021 8.11345C20.1775 6.25547 21.3509 6.64405 21.3509 6.64405C22.1159 8.6186 21.6359 10.0794 21.4899 10.4435C22.3882 11.4452 22.9272 12.7275 22.9272 14.2933C22.9272 19.8097 19.6567 21.0215 16.5378 21.3769C17.0361 21.8202 17.4853 22.6952 17.4853 24.0337C17.4853 25.9535 17.4684 27.5021 17.4684 27.9727C17.4684 28.357 17.7183 28.8031 18.4327 28.6621C23.994 26.7595 28 21.3827 28 15.0431C28 7.11466 21.7327 0.688721 14 0.688721Z" fill="#0F2935"/>
</svg>
