<svg width="25" height="26" viewBox="0 0 25 26" fill="none" xmlns="http://www.w3.org/2000/svg">
<path d="M24.8021 7.6081C24.7882 6.5667 24.5933 5.53566 24.226 4.5611C23.9075 3.73906 23.421 2.9925 22.7976 2.36911C22.1742 1.74573 21.4276 1.25924 20.6056 0.940723C19.6436 0.579589 18.6272 0.384317 17.5998 0.363223C16.2771 0.304098 15.8577 0.287598 12.5 0.287598C9.14223 0.287598 8.71185 0.287598 7.39873 0.363223C6.37182 0.384472 5.35595 0.579741 4.39435 0.940723C3.57218 1.25902 2.8255 1.74543 2.2021 2.36884C1.57869 2.99225 1.09227 3.73893 0.773974 4.5611C0.412117 5.5224 0.217269 6.5385 0.19785 7.56547C0.138725 8.8896 0.12085 9.30897 0.12085 12.6667C0.12085 16.0245 0.12085 16.4535 0.19785 17.768C0.218475 18.7965 0.412349 19.8112 0.773974 20.7751C1.09281 21.597 1.57958 22.3434 2.2032 22.9665C2.82682 23.5897 3.57356 24.0759 4.39572 24.3941C5.3547 24.7697 6.37074 24.979 7.4001 25.0128C8.72423 25.072 9.1436 25.0898 12.5014 25.0898C15.8591 25.0898 16.2895 25.0898 17.6026 25.0128C18.6299 24.9926 19.6463 24.7978 20.6083 24.4367C21.4302 24.1178 22.1765 23.6312 22.7999 23.0079C23.4232 22.3845 23.9098 21.6382 24.2287 20.8163C24.5904 19.8538 24.7842 18.8391 24.8048 17.8092C24.864 16.4865 24.8818 16.0671 24.8818 12.708C24.8791 9.35022 24.8791 8.92397 24.8021 7.6081ZM12.4917 19.0165C8.97998 19.0165 6.1351 16.1716 6.1351 12.6598C6.1351 9.1481 8.97998 6.30322 12.4917 6.30322C14.1776 6.30322 15.7944 6.97294 16.9865 8.16504C18.1786 9.35713 18.8484 10.974 18.8484 12.6598C18.8484 14.3457 18.1786 15.9626 16.9865 17.1547C15.7944 18.3468 14.1776 19.0165 12.4917 19.0165ZM19.1014 7.55035C18.9066 7.55053 18.7138 7.51231 18.5339 7.43789C18.354 7.36346 18.1905 7.25429 18.0528 7.11661C17.9152 6.97893 17.806 6.81546 17.7316 6.63554C17.6571 6.45563 17.6189 6.2628 17.6191 6.0681C17.6191 5.87354 17.6574 5.68088 17.7319 5.50113C17.8063 5.32138 17.9155 5.15805 18.053 5.02047C18.1906 4.8829 18.3539 4.77377 18.5337 4.69931C18.7134 4.62486 18.9061 4.58654 19.1007 4.58654C19.2952 4.58654 19.4879 4.62486 19.6676 4.69931C19.8474 4.77377 20.0107 4.8829 20.1483 5.02047C20.2859 5.15805 20.395 5.32138 20.4694 5.50113C20.5439 5.68088 20.5822 5.87354 20.5822 6.0681C20.5822 6.8876 19.9195 7.55035 19.1014 7.55035Z" fill="#0F2935"/>
</svg>
