<svg width="59" height="78" viewBox="0 0 59 78" fill="none" xmlns="http://www.w3.org/2000/svg">
<path d="M2.10833 77.5582C2.74463 77.8863 3.45905 78.0365 4.17491 77.9925C4.89076 77.9485 5.58102 77.7121 6.1716 77.3086L57.3066 42.2067C57.8291 41.8478 58.2561 41.3686 58.551 40.8103C58.8459 40.2519 59 39.631 59 39.0007C59 38.3705 58.8459 37.7496 58.551 37.1912C58.2561 36.6329 57.8291 36.1537 57.3066 35.7948L6.1716 0.692921C5.58148 0.288051 4.8909 0.0509669 4.17464 0.00733927C3.45837 -0.0362884 2.74372 0.115203 2.10806 0.445411C1.4724 0.775619 0.939952 1.27196 0.568373 1.88069C0.196794 2.48942 0.000242236 3.18734 5.34286e-08 3.89889V74.1026C-0.000118269 74.8145 0.196292 75.5129 0.567942 76.122C0.939592 76.7312 1.4723 77.2278 2.10833 77.5582Z" fill="#CCD965"/>
</svg>
