<svg width="73" height="74" viewBox="0 0 73 74" fill="none" xmlns="http://www.w3.org/2000/svg">
<path d="M71.1292 15.8981L56.2446 30.7786L42.7184 17.2488L57.5991 2.36827C53.0588 0.501735 48.0676 0.020351 43.2541 0.984733C38.4407 1.94911 34.0202 4.31614 30.5494 7.78774C27.0786 11.2593 24.7125 15.6803 23.7493 20.4939C22.786 25.3074 23.2686 30.2984 25.1362 34.8383L1.1219 58.8483C0.766252 59.2034 0.484104 59.625 0.291596 60.0892C0.0990885 60.5534 0 61.051 0 61.5535C0 62.056 0.0990885 62.5536 0.291596 63.0178C0.484104 63.482 0.766252 63.9037 1.1219 64.2587L9.24146 72.3781C9.5965 72.7338 10.0182 73.0159 10.4824 73.2084C10.9466 73.4009 11.4442 73.5 11.9467 73.5C12.4492 73.5 12.9468 73.4009 13.411 73.2084C13.8752 73.0159 14.2969 72.7338 14.6519 72.3781L38.6624 48.3643C43.2028 50.2333 48.1948 50.7169 53.0095 49.7541C57.8242 48.7914 62.2463 46.4252 65.7187 42.9539C69.1888 39.4807 71.5541 35.0587 72.5168 30.2444C73.4796 25.4301 72.9968 20.4386 71.1292 15.8981Z" fill="#0F2935"/>
</svg>
