<svg width="75" height="75" viewBox="0 0 75 75" fill="none" xmlns="http://www.w3.org/2000/svg">
<path d="M37.5 0C16.8225 0 0 16.8225 0 37.5C0 58.1775 16.8225 75 37.5 75C58.1775 75 75 58.1775 75 37.5C75 16.8225 58.1775 0 37.5 0ZM7.5 37.5C7.5 34.1288 8.085 30.8925 9.11625 27.8662L15 33.75L22.5 41.25V48.75L30 56.25L33.75 60V67.2412C18.9788 65.385 7.5 52.77 7.5 37.5ZM61.2375 55.7737C58.7887 53.8012 55.0762 52.5 52.5 52.5V48.75C52.5 46.7609 51.7098 44.8532 50.3033 43.4467C48.8968 42.0402 46.9891 41.25 45 41.25H30V30C31.9891 30 33.8968 29.2098 35.3033 27.8033C36.7098 26.3968 37.5 24.4891 37.5 22.5V18.75H41.25C43.2391 18.75 45.1468 17.9598 46.5533 16.5533C47.9598 15.1468 48.75 13.2391 48.75 11.25V9.70875C59.73 14.1675 67.5 24.9375 67.5 37.5C67.4993 44.1176 65.296 50.5468 61.2375 55.7737Z" fill="#0F2935"/>
</svg>
